<svg width="342" height="190" viewBox="0 0 342 190" fill="none" xmlns="http://www.w3.org/2000/svg">
<rect width="342" height="190" rx="9" fill="#373737"/>
<path fill-rule="evenodd" clip-rule="evenodd" d="M292.768 313.343C280.366 305.209 269.346 296.2 258.874 285.691C248.743 275.524 242.349 262.993 232.341 252.705C212.523 232.332 167.264 223.676 171.117 195.478C174.772 168.72 219.188 174.14 244.388 164.529C259.154 158.897 275.722 159.39 288.847 150.577C309.829 136.489 317.958 92.407 342.403 98.7176C367.205 105.121 345.506 155.368 366.158 170.536C391.514 189.159 447.596 153.872 457.979 183.605C468.127 212.664 407.992 219.972 392.769 246.738C383.582 262.89 398.737 284.647 390.923 301.507C382.282 320.153 368.082 341.499 347.712 343.955C326.535 346.508 310.605 325.041 292.768 313.343Z" fill="#037E8C"/>
</svg>
