<svg width="88" height="72" viewBox="0 0 88 72" fill="none" xmlns="http://www.w3.org/2000/svg">
<path d="M8.75008 36C4.44175 36 0.916748 32.475 0.916748 28.1667V8.58333C0.916748 4.275 4.44175 0.75 8.75008 0.75H40.0834C44.3917 0.75 47.9167 4.275 47.9167 8.58333V28.1667C47.9167 32.475 44.3917 36 40.0834 36H32.2501V47.75L20.5001 36H8.75008ZM79.2501 59.5C83.5584 59.5 87.0834 55.975 87.0834 51.6667V32.0833C87.0834 27.775 83.5584 24.25 79.2501 24.25H55.7501V28.1667C55.7501 36.7833 48.7001 43.8333 40.0834 43.8333V51.6667C40.0834 55.975 43.6084 59.5 47.9167 59.5H55.7501V71.25L67.5001 59.5H79.2501Z" fill="#121214"/>
</svg>
