<svg height="auto" viewBox="0 0 720 200" xmlns="http://www.w3.org/2000/svg"><path d="M0 197.562c7.6-1.66 22.8-6.585 38-8.304 15.2-1.72 22.8 4.085 38-.291s22.8-16.463 38-21.589c15.2-5.126 22.8.149 38-4.043s22.8-11.514 38-16.917c15.2-5.403 22.8-6.057 38-10.098 15.2-4.04 22.8-12.67 38-10.105 15.2 2.564 22.8 27.257 38 22.926 15.2-4.33 22.8-41.593 38-44.578 15.2-2.986 22.8 32.312 38 29.651 15.2-2.661 22.8-39.982 38-42.958 15.2-2.976 22.8 23.995 38 28.079s22.8.099 38-7.66c15.2-7.758 22.8-21.377 38-31.132 15.2-9.755 22.8-14.975 38-17.641 15.2-2.667 22.8 12.454 38 4.31 15.2-8.146 22.8-32.886 38-45.035 15.2-12.15 22.8-11.792 38-15.711 15.2-3.92 30.4-3.107 38-3.884L720 200H0Z" fill="#ff00251a"/><path d="M0 197.562c7.6-1.66 22.8-6.585 38-8.304 15.2-1.72 22.8 4.085 38-.291s22.8-16.463 38-21.589c15.2-5.126 22.8.149 38-4.043s22.8-11.514 38-16.917c15.2-5.403 22.8-6.057 38-10.098 15.2-4.04 22.8-12.67 38-10.105 15.2 2.564 22.8 27.257 38 22.926 15.2-4.33 22.8-41.593 38-44.578 15.2-2.986 22.8 32.312 38 29.651 15.2-2.661 22.8-39.982 38-42.958 15.2-2.976 22.8 23.995 38 28.079s22.8.099 38-7.66c15.2-7.758 22.8-21.377 38-31.132 15.2-9.755 22.8-14.975 38-17.641 15.2-2.667 22.8 12.454 38 4.31 15.2-8.146 22.8-32.886 38-45.035 15.2-12.15 22.8-11.792 38-15.711 15.2-3.92 30.4-3.107 38-3.884" fill="none" stroke="#ff0025" stroke-width="2"/></svg>