<svg height="auto" viewBox="0 0 1440 300" xmlns="http://www.w3.org/2000/svg"><path d="M0 48.44c10 13.17 30 52.075 50 65.85 20 13.776 30-15.071 50 3.03 20 18.1 30 80.912 50 87.475 20 6.563 30-54.83 50-54.66 20 .17 30 78.766 50 55.511 20-23.254 30-172.836 50-171.784 20 1.053 30 142.889 50 177.047 20 34.159 30 14.82 50-6.254 20-21.075 30-102.809 50-99.119 20 3.69 30 102.066 50 117.57 20 15.502 30-40.611 50-40.054 20 .557 30 61.379 50 42.839s30-100.021 50-135.538c20-35.518 30-53.613 50-42.049 20 11.565 30 87.967 50 99.87 20 11.904 30-48 50-40.352 20 7.647 30 74.64 50 78.59 20 3.95 30-45.826 50-58.84 20-13.012 30-22.737 50-6.224 20 16.513 30 91.896 50 88.79 20-3.104 30-84.364 50-104.316 20-19.951 30-18.95 50 4.56 20 23.51 30 87.374 50 112.993s30 35.788 50 15.102c20-20.685 30-96.068 50-118.528 20-22.46 30 22.897 50 6.228 20-16.67 30-88.072 50-89.575 20-1.503 30 52.444 50 82.06s40 52.815 50 66.019L1440 300H0Z" fill="#0eff001a"/><path d="M0 48.44c10 13.17 30 52.075 50 65.85 20 13.776 30-15.071 50 3.03 20 18.1 30 80.912 50 87.475 20 6.563 30-54.83 50-54.66 20 .17 30 78.766 50 55.511 20-23.254 30-172.836 50-171.784 20 1.053 30 142.889 50 177.047 20 34.159 30 14.82 50-6.254 20-21.075 30-102.809 50-99.119 20 3.69 30 102.066 50 117.57 20 15.502 30-40.611 50-40.054 20 .557 30 61.379 50 42.839s30-100.021 50-135.538c20-35.518 30-53.613 50-42.049 20 11.565 30 87.967 50 99.87 20 11.904 30-48 50-40.352 20 7.647 30 74.64 50 78.59 20 3.95 30-45.826 50-58.84 20-13.012 30-22.737 50-6.224 20 16.513 30 91.896 50 88.79 20-3.104 30-84.364 50-104.316 20-19.951 30-18.95 50 4.56 20 23.51 30 87.374 50 112.993s30 35.788 50 15.102c20-20.685 30-96.068 50-118.528 20-22.46 30 22.897 50 6.228 20-16.67 30-88.072 50-89.575 20-1.503 30 52.444 50 82.06s40 52.815 50 66.019" fill="none" stroke="#0eff00" stroke-width="2"/><g fill="#0eff00"><circle cy="48.441" r="6"/><circle cx="50" cy="114.291" r="6"/><circle cx="100" cy="117.32" r="6"/><circle cx="150" cy="204.795" r="6"/><circle cx="200" cy="150.135" r="6"/><circle cx="250" cy="205.646" r="6"/><circle cx="300" cy="33.862" r="6"/><circle cx="350" cy="210.909" r="6"/><circle cx="400" cy="204.655" r="6"/><circle cx="450" cy="105.536" r="6"/><circle cx="500" cy="223.105" r="6"/><circle cx="550" cy="183.052" r="6"/><circle cx="600" cy="225.891" r="6"/><circle cx="650" cy="90.353" r="6"/><circle cx="700" cy="48.304" r="6"/><circle cx="750" cy="148.175" r="6"/><circle cx="800" cy="107.822" r="6"/><circle cx="850" cy="186.412" r="6"/><circle cx="900" cy="127.573" r="6"/><circle cx="950" cy="121.348" r="6"/><circle cx="1000" cy="210.139" r="6"/><circle cx="1050" cy="105.822" r="6"/><circle cx="1100" cy="110.382" r="6"/><circle cx="1150" cy="223.375" r="6"/><circle cx="1200" cy="238.477" r="6"/><circle cx="1250" cy="119.949" r="6"/><circle cx="1300" cy="126.177" r="6"/><circle cx="1350" cy="36.602" r="6"/><circle cx="1400" cy="118.662" r="6"/><circle cx="1450" cy="184.681" r="6"/></g></svg>