<svg height="auto" viewBox="0 0 360 300" xmlns="http://www.w3.org/2000/svg"><path d="M0 300h14.4v-62.55q0-5-5-5H5q-5 0-5 5ZM18 300h14.4V183.604q0-5-5-5H23q-5 0-5 5ZM36 300h14.4V110.135q0-5-5-5H41q-5 0-5 5ZM54 300h14.4v-62.14q0-5-5-5H59q-5 0-5 5ZM72 300h14.4V126.238q0-5-5-5H77q-5 0-5 5ZM90 300h14.4V174.659q0-5-5-5H95q-5 0-5 5ZM108 300h14.4V109.168q0-5-5-5H113q-5 0-5 5ZM126 300h14.4V151.978q0-5-5-5H131q-5 0-5 5ZM144 300h14.4V160.681q0-5-5-5H149q-5 0-5 5ZM162 300h14.4V50.607q0-5-5-5H167q-5 0-5 5ZM180 300h14.4v-69.78q0-5-5-5H185q-5 0-5 5ZM198 300h14.4V50.46q0-5-5-5H203q-5 0-5 5ZM216 300h14.4v-87.3q0-5-5-5H221q-5 0-5 5ZM234 300h14.4v-88.209q0-5-5-5H239q-5 0-5 5ZM252 300h14.4V43.358q0-5-5-5H257q-5 0-5 5ZM270 300h14.4V57.373q0-5-5-5H275q-5 0-5 5ZM288 300h14.4V177.13q0-5-5-5H293q-5 0-5 5ZM306 300h14.4v-64.82q0-5-5-5H311q-5 0-5 5ZM324 300h14.4V63.914q0-5-5-5H329q-5 0-5 5ZM342 300h14.4v-70.93q0-5-5-5H347q-5 0-5 5Z" fill="#ffb733"/></svg>