<svg height="auto" viewBox="0 0 360 300" xmlns="http://www.w3.org/2000/svg"><path d="M0 300h14.4V123.812q0-5-5-5H5q-5 0-5 5ZM18 300h14.4V184.52q0-5-5-5H23q-5 0-5 5ZM36 300h14.4V87.87q0-5-5-5H41q-5 0-5 5ZM54 300h14.4V174.56q0-5-5-5H59q-5 0-5 5ZM72 300h14.4V154.781q0-5-5-5H77q-5 0-5 5ZM90 300h14.4V82.408q0-5-5-5H95q-5 0-5 5ZM108 300h14.4V141.009q0-5-5-5H113q-5 0-5 5ZM126 300h14.4v-71.476q0-5-5-5H131q-5 0-5 5ZM144 300h14.4V70.45q0-5-5-5H149q-5 0-5 5ZM162 300h14.4V87.446q0-5-5-5H167q-5 0-5 5ZM180 300h14.4V62.899q0-5-5-5H185q-5 0-5 5ZM198 300h14.4V161.245q0-5-5-5H203q-5 0-5 5ZM216 300h14.4V151.558q0-5-5-5H221q-5 0-5 5ZM234 300h14.4v-94.494q0-5-5-5H239q-5 0-5 5ZM252 300h14.4V89.375q0-5-5-5H257q-5 0-5 5ZM270 300h14.4V84.219q0-5-5-5H275q-5 0-5 5ZM288 300h14.4v-84.5q0-5-5-5H293q-5 0-5 5ZM306 300h14.4V146.96q0-5-5-5H311q-5 0-5 5ZM324 300h14.4V94.261q0-5-5-5H329q-5 0-5 5ZM342 300h14.4V84.739q0-5-5-5H347q-5 0-5 5Z" fill="#ffb733"/></svg>