<svg height="auto" viewBox="0 0 720 300" xmlns="http://www.w3.org/2000/svg"><path d="M0 32.725C7.6 43.57 22.8 83.148 38 86.943c15.2 3.796 22.8-26.756 38-35.24 15.2-8.484 22.8-8.106 38-7.18 15.2.927 22.8 4.51 38 11.811 15.2 7.302 22.8-10.102 38 24.7s22.8 124.705 38 149.311c15.2 24.607 22.8-16.566 38-26.277 15.2-9.71 22.8-17.383 38-22.276 15.2-4.894 22.8.54 38-2.19 15.2-2.732 22.8 2.405 38-11.465 15.2-13.869 22.8-59.194 38-57.882 15.2 1.311 22.8 61.774 38 64.44 15.2 2.665 22.8-28.579 38-51.11 15.2-22.533 22.8-78.06 38-61.55 15.2 16.508 22.8 119.139 38 144.092 15.2 24.954 22.8 3.135 38-19.323s22.8-82.404 38-92.966c15.2-10.562 22.8 20.829 38 40.156 15.2 19.328 30.4 45.186 38 56.482L720 300H0Z" fill="#ff00251a"/><path d="M0 32.725C7.6 43.57 22.8 83.148 38 86.943c15.2 3.796 22.8-26.756 38-35.24 15.2-8.484 22.8-8.106 38-7.18 15.2.927 22.8 4.51 38 11.811 15.2 7.302 22.8-10.102 38 24.7s22.8 124.705 38 149.311c15.2 24.607 22.8-16.566 38-26.277 15.2-9.71 22.8-17.383 38-22.276 15.2-4.894 22.8.54 38-2.19 15.2-2.732 22.8 2.405 38-11.465 15.2-13.869 22.8-59.194 38-57.882 15.2 1.311 22.8 61.774 38 64.44 15.2 2.665 22.8-28.579 38-51.11 15.2-22.533 22.8-78.06 38-61.55 15.2 16.508 22.8 119.139 38 144.092 15.2 24.954 22.8 3.135 38-19.323s22.8-82.404 38-92.966c15.2-10.562 22.8 20.829 38 40.156 15.2 19.328 30.4 45.186 38 56.482" fill="none" stroke="#ff0025" stroke-width="4"/><g fill="#ff0025"><circle cy="32.725" r="8"/><circle cx="38" cy="86.943" r="8"/><circle cx="76" cy="51.703" r="8"/><circle cx="114" cy="44.523" r="8"/><circle cx="152" cy="56.334" r="8"/><circle cx="190" cy="81.034" r="8"/><circle cx="228" cy="230.345" r="8"/><circle cx="266" cy="204.068" r="8"/><circle cx="304" cy="181.792" r="8"/><circle cx="342" cy="179.601" r="8"/><circle cx="380" cy="168.137" r="8"/><circle cx="418" cy="110.255" r="8"/><circle cx="456" cy="174.694" r="8"/><circle cx="494" cy="123.584" r="8"/><circle cx="532" cy="62.034" r="8"/><circle cx="570" cy="206.127" r="8"/><circle cx="608" cy="186.804" r="8"/><circle cx="646" cy="93.838" r="8"/><circle cx="684" cy="133.994" r="8"/><circle cx="722" cy="190.476" r="8"/></g></svg>