<svg height="auto" viewBox="0 0 360 300" xmlns="http://www.w3.org/2000/svg"><path d="M0 300h14.4V91.554q0-5-5-5H5q-5 0-5 5ZM18 300h14.4V168.168q0-5-5-5H23q-5 0-5 5ZM36 300h14.4V63.554q0-5-5-5H41q-5 0-5 5ZM54 300h14.4v-97.312q0-5-5-5H59q-5 0-5 5ZM72 300h14.4v-73.083q0-5-5-5H77q-5 0-5 5ZM90 300h14.4V171.4q0-5-5-5H95q-5 0-5 5ZM108 300h14.4V191.962q0-5-5-5H113q-5 0-5 5ZM126 300h14.4V116.776q0-5-5-5H131q-5 0-5 5ZM144 300h14.4V181.52q0-5-5-5H149q-5 0-5 5ZM162 300h14.4V176.814q0-5-5-5H167q-5 0-5 5ZM180 300h14.4V113.517q0-5-5-5H185q-5 0-5 5ZM198 300h14.4v-62.435q0-5-5-5H203q-5 0-5 5ZM216 300h14.4V162.499q0-5-5-5H221q-5 0-5 5ZM234 300h14.4V168.389q0-5-5-5H239q-5 0-5 5ZM252 300h14.4V110.584q0-5-5-5H257q-5 0-5 5ZM270 300h14.4V118.582q0-5-5-5H275q-5 0-5 5ZM288 300h14.4V137.47q0-5-5-5H293q-5 0-5 5ZM306 300h14.4V129.99q0-5-5-5H311q-5 0-5 5ZM324 300h14.4V103.359q0-5-5-5H329q-5 0-5 5ZM342 300h14.4V52.287q0-5-5-5H347q-5 0-5 5Z" fill="#ffb733"/></svg>