<svg width="335" height="344" viewBox="0 0 335 344" fill="none" xmlns="http://www.w3.org/2000/svg">
<rect width="335" height="344" rx="9" fill="#F4F4F4"/>
<g clip-path="url(#clip0_282_2)">
<path fill-rule="evenodd" clip-rule="evenodd" d="M267.254 596.819C245.452 582.52 226.08 566.682 207.67 548.208C189.86 530.335 178.62 508.305 161.026 490.219C126.187 454.405 46.6235 439.188 53.3962 389.617C59.823 342.578 137.903 352.105 182.204 335.209C208.162 325.309 237.287 326.176 260.362 310.683C297.246 285.917 311.538 208.422 354.51 219.516C398.112 230.772 359.966 319.105 396.271 345.77C440.846 378.509 539.435 316.474 557.689 368.745C575.528 419.829 469.813 432.677 443.052 479.73C426.902 508.125 453.544 546.372 439.807 576.012C424.615 608.789 399.653 646.315 363.844 650.633C326.616 655.122 298.611 617.383 267.254 596.819Z" fill="#373737"/>
</g>
<defs>
<clipPath id="clip0_282_2">
<rect width="335" height="344" rx="9" fill="white"/>
</clipPath>
</defs>
</svg>
